<mxfile host="app.diagrams.net" agent="Mozilla/5.0 (Windows NT 10.0; Win64; x64) AppleWebKit/537.36 (KHTML, like Gecko) Chrome/140.0.0.0 Safari/537.36 Edg/140.0.0.0" version="28.2.4">
  <diagram name="Page-1" id="LZUe1-znOdfvzBwdCiAk">
    <mxGraphModel dx="1235" dy="760" grid="1" gridSize="10" guides="1" tooltips="1" connect="1" arrows="1" fold="1" page="1" pageScale="1" pageWidth="827" pageHeight="1169" math="0" shadow="0">
      <root>
        <mxCell id="0" />
        <mxCell id="1" parent="0" />
        <mxCell id="oCExeXO8_PA0Ds2FLqin-16" value="Horse" style="rounded=0;whiteSpace=wrap;html=1;" vertex="1" parent="1">
          <mxGeometry x="190" y="220" width="90" height="30" as="geometry" />
        </mxCell>
        <mxCell id="oCExeXO8_PA0Ds2FLqin-17" value="Registration number&amp;nbsp;" style="ellipse;whiteSpace=wrap;html=1;" vertex="1" parent="1">
          <mxGeometry x="30" y="150" width="87" height="50" as="geometry" />
        </mxCell>
        <mxCell id="oCExeXO8_PA0Ds2FLqin-21" value="Type" style="ellipse;whiteSpace=wrap;html=1;" vertex="1" parent="1">
          <mxGeometry x="20" y="200" width="87" height="50" as="geometry" />
        </mxCell>
        <mxCell id="oCExeXO8_PA0Ds2FLqin-22" value="Name" style="ellipse;whiteSpace=wrap;html=1;" vertex="1" parent="1">
          <mxGeometry x="30" y="90" width="87" height="50" as="geometry" />
        </mxCell>
        <mxCell id="oCExeXO8_PA0Ds2FLqin-23" value="Gender" style="ellipse;whiteSpace=wrap;html=1;" vertex="1" parent="1">
          <mxGeometry x="70" y="250" width="87" height="50" as="geometry" />
        </mxCell>
        <mxCell id="oCExeXO8_PA0Ds2FLqin-26" value="Heritage" style="ellipse;whiteSpace=wrap;html=1;" vertex="1" parent="1">
          <mxGeometry x="204" y="60" width="87" height="50" as="geometry" />
        </mxCell>
        <mxCell id="oCExeXO8_PA0Ds2FLqin-67" value="" style="edgeStyle=orthogonalEdgeStyle;rounded=0;orthogonalLoop=1;jettySize=auto;html=1;entryX=0.5;entryY=1;entryDx=0;entryDy=0;" edge="1" parent="1" source="oCExeXO8_PA0Ds2FLqin-27" target="oCExeXO8_PA0Ds2FLqin-16">
          <mxGeometry relative="1" as="geometry">
            <Array as="points">
              <mxPoint x="110" y="340" />
              <mxPoint x="235" y="340" />
            </Array>
          </mxGeometry>
        </mxCell>
        <mxCell id="oCExeXO8_PA0Ds2FLqin-27" value="Trainer" style="rounded=0;whiteSpace=wrap;html=1;" vertex="1" parent="1">
          <mxGeometry x="45.5" y="380" width="90" height="30" as="geometry" />
        </mxCell>
        <mxCell id="oCExeXO8_PA0Ds2FLqin-28" value="Mother" style="ellipse;whiteSpace=wrap;html=1;" vertex="1" parent="1">
          <mxGeometry x="140" width="87" height="50" as="geometry" />
        </mxCell>
        <mxCell id="oCExeXO8_PA0Ds2FLqin-29" value="Father" style="ellipse;whiteSpace=wrap;html=1;" vertex="1" parent="1">
          <mxGeometry x="240" width="87" height="50" as="geometry" />
        </mxCell>
        <mxCell id="oCExeXO8_PA0Ds2FLqin-30" value="Stabled" style="ellipse;whiteSpace=wrap;html=1;" vertex="1" parent="1">
          <mxGeometry x="117" y="70" width="87" height="50" as="geometry" />
        </mxCell>
        <mxCell id="oCExeXO8_PA0Ds2FLqin-32" value="Name" style="ellipse;whiteSpace=wrap;html=1;" vertex="1" parent="1">
          <mxGeometry x="291" y="50" width="60" height="30" as="geometry" />
        </mxCell>
        <mxCell id="oCExeXO8_PA0Ds2FLqin-33" value="Barn Id" style="ellipse;whiteSpace=wrap;html=1;" vertex="1" parent="1">
          <mxGeometry x="370" y="50" width="50" height="30" as="geometry" />
        </mxCell>
        <mxCell id="oCExeXO8_PA0Ds2FLqin-34" value="&lt;span style=&quot;color: rgb(39, 53, 64); font-family: &amp;quot;Lato Extended&amp;quot;, Lato, &amp;quot;Helvetica Neue&amp;quot;, Helvetica, Arial, sans-serif; text-align: start; background-color: rgb(255, 255, 255); line-height: 0%;&quot;&gt;&lt;font style=&quot;font-size: 9px;&quot;&gt;People involved (Foreign keys)&lt;/font&gt;&lt;/span&gt;" style="ellipse;whiteSpace=wrap;html=1;" vertex="1" parent="1">
          <mxGeometry x="413.5" y="80" width="87" height="50" as="geometry" />
        </mxCell>
        <mxCell id="oCExeXO8_PA0Ds2FLqin-35" value="&lt;span style=&quot;color: rgb(39, 53, 64); font-family: &amp;quot;Lato Extended&amp;quot;, Lato, &amp;quot;Helvetica Neue&amp;quot;, Helvetica, Arial, sans-serif; font-size: 16px; text-align: start; background-color: rgb(255, 255, 255);&quot;&gt;Jockeys&lt;/span&gt;" style="ellipse;whiteSpace=wrap;html=1;" vertex="1" parent="1">
          <mxGeometry x="700" y="50" width="87" height="50" as="geometry" />
        </mxCell>
        <mxCell id="oCExeXO8_PA0Ds2FLqin-36" value="&lt;span style=&quot;color: rgb(39, 53, 64); font-family: &amp;quot;Lato Extended&amp;quot;, Lato, &amp;quot;Helvetica Neue&amp;quot;, Helvetica, Arial, sans-serif; font-size: 16px; text-align: start; background-color: rgb(255, 255, 255);&quot;&gt;Owners&lt;/span&gt;" style="ellipse;whiteSpace=wrap;html=1;" vertex="1" parent="1">
          <mxGeometry x="627" y="90" width="87" height="50" as="geometry" />
        </mxCell>
        <mxCell id="oCExeXO8_PA0Ds2FLqin-37" value="&lt;span style=&quot;color: rgb(39, 53, 64); font-family: &amp;quot;Lato Extended&amp;quot;, Lato, &amp;quot;Helvetica Neue&amp;quot;, Helvetica, Arial, sans-serif; font-size: 16px; text-align: start; background-color: rgb(255, 255, 255);&quot;&gt;Trainers&lt;/span&gt;" style="ellipse;whiteSpace=wrap;html=1;" vertex="1" parent="1">
          <mxGeometry x="537" y="110" width="87" height="50" as="geometry" />
        </mxCell>
        <mxCell id="oCExeXO8_PA0Ds2FLqin-38" value="&lt;span style=&quot;color: rgb(39, 53, 64); font-family: &amp;quot;Lato Extended&amp;quot;, Lato, &amp;quot;Helvetica Neue&amp;quot;, Helvetica, Arial, sans-serif; font-size: 16px; text-align: start; background-color: rgb(255, 255, 255);&quot;&gt;Data of people&lt;/span&gt;" style="ellipse;whiteSpace=wrap;html=1;" vertex="1" parent="1">
          <mxGeometry x="430" y="20" width="87" height="50" as="geometry" />
        </mxCell>
        <mxCell id="oCExeXO8_PA0Ds2FLqin-40" value="" style="endArrow=none;html=1;rounded=0;entryX=0.06;entryY=1.04;entryDx=0;entryDy=0;entryPerimeter=0;" edge="1" parent="1" target="oCExeXO8_PA0Ds2FLqin-16">
          <mxGeometry width="50" height="50" relative="1" as="geometry">
            <mxPoint x="160" y="270" as="sourcePoint" />
            <mxPoint x="230" y="270" as="targetPoint" />
          </mxGeometry>
        </mxCell>
        <mxCell id="oCExeXO8_PA0Ds2FLqin-41" value="" style="endArrow=none;html=1;rounded=0;entryX=0;entryY=0.5;entryDx=0;entryDy=0;exitX=1;exitY=0.5;exitDx=0;exitDy=0;" edge="1" parent="1" source="oCExeXO8_PA0Ds2FLqin-21" target="oCExeXO8_PA0Ds2FLqin-16">
          <mxGeometry width="50" height="50" relative="1" as="geometry">
            <mxPoint x="170" y="280" as="sourcePoint" />
            <mxPoint x="205" y="261" as="targetPoint" />
          </mxGeometry>
        </mxCell>
        <mxCell id="oCExeXO8_PA0Ds2FLqin-42" value="" style="endArrow=none;html=1;rounded=0;entryX=0;entryY=0;entryDx=0;entryDy=0;exitX=0.989;exitY=0.708;exitDx=0;exitDy=0;exitPerimeter=0;" edge="1" parent="1" source="oCExeXO8_PA0Ds2FLqin-17" target="oCExeXO8_PA0Ds2FLqin-16">
          <mxGeometry width="50" height="50" relative="1" as="geometry">
            <mxPoint x="117" y="235" as="sourcePoint" />
            <mxPoint x="200" y="245" as="targetPoint" />
          </mxGeometry>
        </mxCell>
        <mxCell id="oCExeXO8_PA0Ds2FLqin-43" value="" style="endArrow=none;html=1;rounded=0;entryX=0.25;entryY=0;entryDx=0;entryDy=0;exitX=0.934;exitY=0.818;exitDx=0;exitDy=0;exitPerimeter=0;" edge="1" parent="1" source="oCExeXO8_PA0Ds2FLqin-22" target="oCExeXO8_PA0Ds2FLqin-16">
          <mxGeometry width="50" height="50" relative="1" as="geometry">
            <mxPoint x="126" y="195" as="sourcePoint" />
            <mxPoint x="200" y="230" as="targetPoint" />
          </mxGeometry>
        </mxCell>
        <mxCell id="oCExeXO8_PA0Ds2FLqin-44" value="" style="endArrow=none;html=1;rounded=0;entryX=0.389;entryY=-0.047;entryDx=0;entryDy=0;exitX=0.363;exitY=0.957;exitDx=0;exitDy=0;exitPerimeter=0;entryPerimeter=0;" edge="1" parent="1" source="oCExeXO8_PA0Ds2FLqin-30" target="oCExeXO8_PA0Ds2FLqin-16">
          <mxGeometry width="50" height="50" relative="1" as="geometry">
            <mxPoint x="121" y="141" as="sourcePoint" />
            <mxPoint x="223" y="230" as="targetPoint" />
          </mxGeometry>
        </mxCell>
        <mxCell id="oCExeXO8_PA0Ds2FLqin-45" value="" style="endArrow=none;html=1;rounded=0;entryX=0.5;entryY=0;entryDx=0;entryDy=0;exitX=0.412;exitY=1.039;exitDx=0;exitDy=0;exitPerimeter=0;" edge="1" parent="1" source="oCExeXO8_PA0Ds2FLqin-26" target="oCExeXO8_PA0Ds2FLqin-16">
          <mxGeometry width="50" height="50" relative="1" as="geometry">
            <mxPoint x="159" y="128" as="sourcePoint" />
            <mxPoint x="235" y="229" as="targetPoint" />
          </mxGeometry>
        </mxCell>
        <mxCell id="oCExeXO8_PA0Ds2FLqin-47" value="" style="endArrow=none;html=1;rounded=0;entryX=0.637;entryY=0.994;entryDx=0;entryDy=0;exitX=0;exitY=0;exitDx=0;exitDy=0;entryPerimeter=0;" edge="1" parent="1" source="oCExeXO8_PA0Ds2FLqin-26" target="oCExeXO8_PA0Ds2FLqin-28">
          <mxGeometry width="50" height="50" relative="1" as="geometry">
            <mxPoint x="250" y="122" as="sourcePoint" />
            <mxPoint x="245" y="230" as="targetPoint" />
          </mxGeometry>
        </mxCell>
        <mxCell id="oCExeXO8_PA0Ds2FLqin-48" value="" style="endArrow=none;html=1;rounded=0;entryX=0.318;entryY=1.006;entryDx=0;entryDy=0;exitX=0.657;exitY=0.055;exitDx=0;exitDy=0;entryPerimeter=0;exitPerimeter=0;" edge="1" parent="1" source="oCExeXO8_PA0Ds2FLqin-26" target="oCExeXO8_PA0Ds2FLqin-29">
          <mxGeometry width="50" height="50" relative="1" as="geometry">
            <mxPoint x="227" y="77" as="sourcePoint" />
            <mxPoint x="205" y="60" as="targetPoint" />
          </mxGeometry>
        </mxCell>
        <mxCell id="oCExeXO8_PA0Ds2FLqin-49" value="" style="endArrow=none;html=1;rounded=0;entryX=0.629;entryY=0.037;entryDx=0;entryDy=0;exitX=0.5;exitY=1;exitDx=0;exitDy=0;entryPerimeter=0;" edge="1" parent="1" source="oCExeXO8_PA0Ds2FLqin-38" target="oCExeXO8_PA0Ds2FLqin-34">
          <mxGeometry width="50" height="50" relative="1" as="geometry">
            <mxPoint x="271" y="73" as="sourcePoint" />
            <mxPoint x="278" y="60" as="targetPoint" />
          </mxGeometry>
        </mxCell>
        <mxCell id="oCExeXO8_PA0Ds2FLqin-50" value="" style="endArrow=none;html=1;rounded=0;entryX=0.742;entryY=0.07;entryDx=0;entryDy=0;exitX=-0.008;exitY=0.65;exitDx=0;exitDy=0;entryPerimeter=0;exitPerimeter=0;" edge="1" parent="1" source="oCExeXO8_PA0Ds2FLqin-35" target="oCExeXO8_PA0Ds2FLqin-34">
          <mxGeometry width="50" height="50" relative="1" as="geometry">
            <mxPoint x="440" y="70" as="sourcePoint" />
            <mxPoint x="451" y="89" as="targetPoint" />
          </mxGeometry>
        </mxCell>
        <mxCell id="oCExeXO8_PA0Ds2FLqin-51" value="" style="endArrow=none;html=1;rounded=0;entryX=0.994;entryY=0.283;entryDx=0;entryDy=0;exitX=0.014;exitY=0.374;exitDx=0;exitDy=0;entryPerimeter=0;exitPerimeter=0;" edge="1" parent="1" source="oCExeXO8_PA0Ds2FLqin-36" target="oCExeXO8_PA0Ds2FLqin-34">
          <mxGeometry width="50" height="50" relative="1" as="geometry">
            <mxPoint x="497" y="69" as="sourcePoint" />
            <mxPoint x="488" y="94" as="targetPoint" />
          </mxGeometry>
        </mxCell>
        <mxCell id="oCExeXO8_PA0Ds2FLqin-52" value="" style="endArrow=none;html=1;rounded=0;" edge="1" parent="1" source="oCExeXO8_PA0Ds2FLqin-37" target="oCExeXO8_PA0Ds2FLqin-34">
          <mxGeometry width="50" height="50" relative="1" as="geometry">
            <mxPoint x="559" y="83" as="sourcePoint" />
            <mxPoint x="510" y="104" as="targetPoint" />
          </mxGeometry>
        </mxCell>
        <mxCell id="oCExeXO8_PA0Ds2FLqin-53" value="&lt;span style=&quot;color: rgb(39, 53, 64); font-family: &amp;quot;Lato Extended&amp;quot;, Lato, &amp;quot;Helvetica Neue&amp;quot;, Helvetica, Arial, sans-serif; font-size: 16px; text-align: start; background-color: rgb(255, 255, 255);&quot;&gt;Phone&lt;/span&gt;" style="ellipse;whiteSpace=wrap;html=1;" vertex="1" parent="1">
          <mxGeometry x="601.25" width="61.5" height="30" as="geometry" />
        </mxCell>
        <mxCell id="oCExeXO8_PA0Ds2FLqin-54" value="&lt;span style=&quot;color: rgb(39, 53, 64); font-family: &amp;quot;Lato Extended&amp;quot;, Lato, &amp;quot;Helvetica Neue&amp;quot;, Helvetica, Arial, sans-serif; font-size: 16px; text-align: start; background-color: rgb(255, 255, 255);&quot;&gt;Name&lt;/span&gt;" style="ellipse;whiteSpace=wrap;html=1;" vertex="1" parent="1">
          <mxGeometry x="662.75" y="20" width="61.5" height="30" as="geometry" />
        </mxCell>
        <mxCell id="oCExeXO8_PA0Ds2FLqin-55" value="&lt;span style=&quot;color: rgb(39, 53, 64); font-family: &amp;quot;Lato Extended&amp;quot;, Lato, &amp;quot;Helvetica Neue&amp;quot;, Helvetica, Arial, sans-serif; font-size: 16px; text-align: start; background-color: rgb(255, 255, 255);&quot;&gt;Adress&lt;/span&gt;" style="ellipse;whiteSpace=wrap;html=1;" vertex="1" parent="1">
          <mxGeometry x="610" y="50" width="61.5" height="30" as="geometry" />
        </mxCell>
        <mxCell id="oCExeXO8_PA0Ds2FLqin-56" value="&lt;span style=&quot;color: rgb(39, 53, 64); font-family: &amp;quot;Lato Extended&amp;quot;, Lato, &amp;quot;Helvetica Neue&amp;quot;, Helvetica, Arial, sans-serif; text-align: start; background-color: rgb(255, 255, 255);&quot;&gt;&lt;font style=&quot;font-size: 10px;&quot;&gt;Primary key&lt;/font&gt;&lt;/span&gt;" style="ellipse;whiteSpace=wrap;html=1;" vertex="1" parent="1">
          <mxGeometry x="517" width="61.5" height="30" as="geometry" />
        </mxCell>
        <mxCell id="oCExeXO8_PA0Ds2FLqin-57" value="" style="endArrow=none;html=1;rounded=0;entryX=0.929;entryY=0.241;entryDx=0;entryDy=0;exitX=0;exitY=0.5;exitDx=0;exitDy=0;entryPerimeter=0;" edge="1" parent="1" source="oCExeXO8_PA0Ds2FLqin-56" target="oCExeXO8_PA0Ds2FLqin-38">
          <mxGeometry width="50" height="50" relative="1" as="geometry">
            <mxPoint x="709" y="93" as="sourcePoint" />
            <mxPoint x="488" y="93" as="targetPoint" />
          </mxGeometry>
        </mxCell>
        <mxCell id="oCExeXO8_PA0Ds2FLqin-58" value="" style="endArrow=none;html=1;rounded=0;entryX=0.969;entryY=0.39;entryDx=0;entryDy=0;exitX=0.052;exitY=0.835;exitDx=0;exitDy=0;entryPerimeter=0;exitPerimeter=0;" edge="1" parent="1" source="oCExeXO8_PA0Ds2FLqin-53" target="oCExeXO8_PA0Ds2FLqin-38">
          <mxGeometry width="50" height="50" relative="1" as="geometry">
            <mxPoint x="527" y="25" as="sourcePoint" />
            <mxPoint x="521" y="42" as="targetPoint" />
          </mxGeometry>
        </mxCell>
        <mxCell id="oCExeXO8_PA0Ds2FLqin-59" value="" style="endArrow=none;html=1;rounded=0;entryX=0.991;entryY=0.585;entryDx=0;entryDy=0;exitX=0;exitY=0.5;exitDx=0;exitDy=0;entryPerimeter=0;" edge="1" parent="1" source="oCExeXO8_PA0Ds2FLqin-54" target="oCExeXO8_PA0Ds2FLqin-38">
          <mxGeometry width="50" height="50" relative="1" as="geometry">
            <mxPoint x="614" y="35" as="sourcePoint" />
            <mxPoint x="524" y="50" as="targetPoint" />
          </mxGeometry>
        </mxCell>
        <mxCell id="oCExeXO8_PA0Ds2FLqin-60" value="" style="endArrow=none;html=1;rounded=0;entryX=0.924;entryY=0.757;entryDx=0;entryDy=0;exitX=0;exitY=0.5;exitDx=0;exitDy=0;entryPerimeter=0;" edge="1" parent="1" source="oCExeXO8_PA0Ds2FLqin-55" target="oCExeXO8_PA0Ds2FLqin-38">
          <mxGeometry width="50" height="50" relative="1" as="geometry">
            <mxPoint x="673" y="45" as="sourcePoint" />
            <mxPoint x="526" y="59" as="targetPoint" />
          </mxGeometry>
        </mxCell>
        <mxCell id="oCExeXO8_PA0Ds2FLqin-61" value="&lt;span style=&quot;color: rgb(39, 53, 64); font-family: &amp;quot;Lato Extended&amp;quot;, Lato, &amp;quot;Helvetica Neue&amp;quot;, Helvetica, Arial, sans-serif; text-align: start; background-color: rgb(255, 255, 255);&quot;&gt;&lt;font style=&quot;font-size: 10px;&quot;&gt;Primary key&lt;/font&gt;&lt;/span&gt;" style="ellipse;whiteSpace=wrap;html=1;" vertex="1" parent="1">
          <mxGeometry y="430" width="61.5" height="30" as="geometry" />
        </mxCell>
        <mxCell id="oCExeXO8_PA0Ds2FLqin-62" value="&lt;span style=&quot;color: rgb(39, 53, 64); font-family: &amp;quot;Lato Extended&amp;quot;, Lato, &amp;quot;Helvetica Neue&amp;quot;, Helvetica, Arial, sans-serif; font-size: 16px; text-align: start; background-color: rgb(255, 255, 255);&quot;&gt;Phone&lt;/span&gt;" style="ellipse;whiteSpace=wrap;html=1;" vertex="1" parent="1">
          <mxGeometry x="18.5" y="470" width="61.5" height="30" as="geometry" />
        </mxCell>
        <mxCell id="oCExeXO8_PA0Ds2FLqin-63" value="&lt;span style=&quot;color: rgb(39, 53, 64); font-family: &amp;quot;Lato Extended&amp;quot;, Lato, &amp;quot;Helvetica Neue&amp;quot;, Helvetica, Arial, sans-serif; font-size: 16px; text-align: start; background-color: rgb(255, 255, 255);&quot;&gt;Name&lt;/span&gt;" style="ellipse;whiteSpace=wrap;html=1;" vertex="1" parent="1">
          <mxGeometry x="61.5" y="500" width="61.5" height="30" as="geometry" />
        </mxCell>
        <mxCell id="oCExeXO8_PA0Ds2FLqin-64" value="&lt;span style=&quot;color: rgb(39, 53, 64); font-family: &amp;quot;Lato Extended&amp;quot;, Lato, &amp;quot;Helvetica Neue&amp;quot;, Helvetica, Arial, sans-serif; font-size: 16px; text-align: start; background-color: rgb(255, 255, 255);&quot;&gt;Adress&lt;/span&gt;" style="ellipse;whiteSpace=wrap;html=1;" vertex="1" parent="1">
          <mxGeometry x="117" y="520" width="61.5" height="30" as="geometry" />
        </mxCell>
        <mxCell id="oCExeXO8_PA0Ds2FLqin-66" value="Training" style="rhombus;whiteSpace=wrap;html=1;rounded=0;" vertex="1" parent="1">
          <mxGeometry x="80" y="310" width="67" height="65" as="geometry" />
        </mxCell>
        <mxCell id="oCExeXO8_PA0Ds2FLqin-69" value="&lt;span style=&quot;color: rgb(39, 53, 64); font-family: &amp;quot;Lato Extended&amp;quot;, Lato, &amp;quot;Helvetica Neue&amp;quot;, Helvetica, Arial, sans-serif; text-align: start; background-color: rgb(255, 255, 255);&quot;&gt;&lt;font style=&quot;font-size: 10px;&quot;&gt;Primary key&lt;/font&gt;&lt;/span&gt;" style="ellipse;whiteSpace=wrap;html=1;" vertex="1" parent="1">
          <mxGeometry x="158.25" y="430" width="61.5" height="30" as="geometry" />
        </mxCell>
        <mxCell id="oCExeXO8_PA0Ds2FLqin-70" value="&lt;span style=&quot;color: rgb(39, 53, 64); font-family: &amp;quot;Lato Extended&amp;quot;, Lato, &amp;quot;Helvetica Neue&amp;quot;, Helvetica, Arial, sans-serif; font-size: 16px; text-align: start; background-color: rgb(255, 255, 255);&quot;&gt;Phone&lt;/span&gt;" style="ellipse;whiteSpace=wrap;html=1;" vertex="1" parent="1">
          <mxGeometry x="176.75" y="470" width="61.5" height="30" as="geometry" />
        </mxCell>
        <mxCell id="oCExeXO8_PA0Ds2FLqin-71" value="&lt;span style=&quot;color: rgb(39, 53, 64); font-family: &amp;quot;Lato Extended&amp;quot;, Lato, &amp;quot;Helvetica Neue&amp;quot;, Helvetica, Arial, sans-serif; font-size: 16px; text-align: start; background-color: rgb(255, 255, 255);&quot;&gt;Name&lt;/span&gt;" style="ellipse;whiteSpace=wrap;html=1;" vertex="1" parent="1">
          <mxGeometry x="219.75" y="500" width="61.5" height="30" as="geometry" />
        </mxCell>
        <mxCell id="oCExeXO8_PA0Ds2FLqin-72" value="&lt;span style=&quot;color: rgb(39, 53, 64); font-family: &amp;quot;Lato Extended&amp;quot;, Lato, &amp;quot;Helvetica Neue&amp;quot;, Helvetica, Arial, sans-serif; font-size: 16px; text-align: start; background-color: rgb(255, 255, 255);&quot;&gt;Adress&lt;/span&gt;" style="ellipse;whiteSpace=wrap;html=1;" vertex="1" parent="1">
          <mxGeometry x="275.25" y="520" width="61.5" height="30" as="geometry" />
        </mxCell>
        <mxCell id="oCExeXO8_PA0Ds2FLqin-73" value="Owner" style="rounded=0;whiteSpace=wrap;html=1;" vertex="1" parent="1">
          <mxGeometry x="220" y="390" width="90" height="30" as="geometry" />
        </mxCell>
        <mxCell id="oCExeXO8_PA0Ds2FLqin-77" value="" style="edgeStyle=orthogonalEdgeStyle;rounded=0;orthogonalLoop=1;jettySize=auto;html=1;" edge="1" parent="1" source="oCExeXO8_PA0Ds2FLqin-74" target="oCExeXO8_PA0Ds2FLqin-73">
          <mxGeometry relative="1" as="geometry" />
        </mxCell>
        <mxCell id="oCExeXO8_PA0Ds2FLqin-74" value="Own to" style="rhombus;whiteSpace=wrap;html=1;rounded=0;" vertex="1" parent="1">
          <mxGeometry x="240" y="320" width="50" height="45" as="geometry" />
        </mxCell>
        <mxCell id="oCExeXO8_PA0Ds2FLqin-76" value="" style="edgeStyle=orthogonalEdgeStyle;rounded=0;orthogonalLoop=1;jettySize=auto;html=1;entryX=0.663;entryY=1.106;entryDx=0;entryDy=0;exitX=0.5;exitY=0;exitDx=0;exitDy=0;entryPerimeter=0;" edge="1" parent="1" source="oCExeXO8_PA0Ds2FLqin-74" target="oCExeXO8_PA0Ds2FLqin-16">
          <mxGeometry relative="1" as="geometry">
            <mxPoint x="230" y="440" as="sourcePoint" />
            <mxPoint x="355" y="310" as="targetPoint" />
            <Array as="points">
              <mxPoint x="250" y="320" />
            </Array>
          </mxGeometry>
        </mxCell>
        <mxCell id="oCExeXO8_PA0Ds2FLqin-78" value="&lt;div style=&quot;text-align: start;&quot;&gt;&lt;font style=&quot;font-size: 10px;&quot; face=&quot;Lato Extended, Lato, Helvetica Neue, Helvetica, Arial, sans-serif&quot; color=&quot;#273540&quot;&gt;&lt;span style=&quot;background-color: rgb(255, 255, 255);&quot;&gt;Percentage&lt;/span&gt;&lt;/font&gt;&lt;/div&gt;" style="ellipse;whiteSpace=wrap;html=1;" vertex="1" parent="1">
          <mxGeometry x="320" y="550" width="61.5" height="30" as="geometry" />
        </mxCell>
        <mxCell id="oCExeXO8_PA0Ds2FLqin-79" value="" style="endArrow=none;html=1;rounded=0;entryX=0.25;entryY=1;entryDx=0;entryDy=0;exitX=1;exitY=0;exitDx=0;exitDy=0;" edge="1" parent="1" source="oCExeXO8_PA0Ds2FLqin-61" target="oCExeXO8_PA0Ds2FLqin-27">
          <mxGeometry width="50" height="50" relative="1" as="geometry">
            <mxPoint x="170" y="280" as="sourcePoint" />
            <mxPoint x="205" y="261" as="targetPoint" />
          </mxGeometry>
        </mxCell>
        <mxCell id="oCExeXO8_PA0Ds2FLqin-80" value="" style="endArrow=none;html=1;rounded=0;entryX=0.5;entryY=1;entryDx=0;entryDy=0;exitX=0.778;exitY=-0.05;exitDx=0;exitDy=0;exitPerimeter=0;" edge="1" parent="1" source="oCExeXO8_PA0Ds2FLqin-62" target="oCExeXO8_PA0Ds2FLqin-27">
          <mxGeometry width="50" height="50" relative="1" as="geometry">
            <mxPoint x="62" y="444" as="sourcePoint" />
            <mxPoint x="78" y="420" as="targetPoint" />
          </mxGeometry>
        </mxCell>
        <mxCell id="oCExeXO8_PA0Ds2FLqin-81" value="" style="endArrow=none;html=1;rounded=0;entryX=0.75;entryY=1;entryDx=0;entryDy=0;exitX=0.5;exitY=0;exitDx=0;exitDy=0;" edge="1" parent="1" source="oCExeXO8_PA0Ds2FLqin-63" target="oCExeXO8_PA0Ds2FLqin-27">
          <mxGeometry width="50" height="50" relative="1" as="geometry">
            <mxPoint x="100" y="490" as="sourcePoint" />
            <mxPoint x="101" y="420" as="targetPoint" />
          </mxGeometry>
        </mxCell>
        <mxCell id="oCExeXO8_PA0Ds2FLqin-82" value="" style="endArrow=none;html=1;rounded=0;entryX=0.906;entryY=0.95;entryDx=0;entryDy=0;exitX=0.401;exitY=0.017;exitDx=0;exitDy=0;entryPerimeter=0;exitPerimeter=0;" edge="1" parent="1" source="oCExeXO8_PA0Ds2FLqin-64" target="oCExeXO8_PA0Ds2FLqin-27">
          <mxGeometry width="50" height="50" relative="1" as="geometry">
            <mxPoint x="102" y="510" as="sourcePoint" />
            <mxPoint x="123" y="420" as="targetPoint" />
          </mxGeometry>
        </mxCell>
        <mxCell id="oCExeXO8_PA0Ds2FLqin-83" value="" style="endArrow=none;html=1;rounded=0;entryX=0;entryY=1;entryDx=0;entryDy=0;exitX=0.706;exitY=0.15;exitDx=0;exitDy=0;exitPerimeter=0;" edge="1" parent="1" source="oCExeXO8_PA0Ds2FLqin-69" target="oCExeXO8_PA0Ds2FLqin-73">
          <mxGeometry width="50" height="50" relative="1" as="geometry">
            <mxPoint x="210" y="430" as="sourcePoint" />
            <mxPoint x="137" y="419" as="targetPoint" />
          </mxGeometry>
        </mxCell>
        <mxCell id="oCExeXO8_PA0Ds2FLqin-84" value="" style="endArrow=none;html=1;rounded=0;entryX=0.25;entryY=1;entryDx=0;entryDy=0;exitX=0.752;exitY=0.017;exitDx=0;exitDy=0;exitPerimeter=0;" edge="1" parent="1" source="oCExeXO8_PA0Ds2FLqin-70" target="oCExeXO8_PA0Ds2FLqin-73">
          <mxGeometry width="50" height="50" relative="1" as="geometry">
            <mxPoint x="212" y="445" as="sourcePoint" />
            <mxPoint x="230" y="430" as="targetPoint" />
          </mxGeometry>
        </mxCell>
        <mxCell id="oCExeXO8_PA0Ds2FLqin-85" value="" style="endArrow=none;html=1;rounded=0;entryX=0.5;entryY=1;entryDx=0;entryDy=0;exitX=0.5;exitY=0;exitDx=0;exitDy=0;" edge="1" parent="1" source="oCExeXO8_PA0Ds2FLqin-71" target="oCExeXO8_PA0Ds2FLqin-73">
          <mxGeometry width="50" height="50" relative="1" as="geometry">
            <mxPoint x="233" y="481" as="sourcePoint" />
            <mxPoint x="253" y="430" as="targetPoint" />
          </mxGeometry>
        </mxCell>
        <mxCell id="oCExeXO8_PA0Ds2FLqin-86" value="" style="endArrow=none;html=1;rounded=0;entryX=0.87;entryY=0.928;entryDx=0;entryDy=0;exitX=0.343;exitY=-0.05;exitDx=0;exitDy=0;entryPerimeter=0;exitPerimeter=0;" edge="1" parent="1" source="oCExeXO8_PA0Ds2FLqin-72" target="oCExeXO8_PA0Ds2FLqin-73">
          <mxGeometry width="50" height="50" relative="1" as="geometry">
            <mxPoint x="261" y="510" as="sourcePoint" />
            <mxPoint x="275" y="430" as="targetPoint" />
          </mxGeometry>
        </mxCell>
        <mxCell id="oCExeXO8_PA0Ds2FLqin-87" value="" style="endArrow=none;html=1;rounded=0;entryX=1;entryY=1;entryDx=0;entryDy=0;exitX=0.5;exitY=0;exitDx=0;exitDy=0;" edge="1" parent="1" source="oCExeXO8_PA0Ds2FLqin-78" target="oCExeXO8_PA0Ds2FLqin-73">
          <mxGeometry width="50" height="50" relative="1" as="geometry">
            <mxPoint x="306" y="529" as="sourcePoint" />
            <mxPoint x="308" y="428" as="targetPoint" />
          </mxGeometry>
        </mxCell>
        <mxCell id="oCExeXO8_PA0Ds2FLqin-88" value="&lt;span style=&quot;color: rgb(39, 53, 64); font-family: &amp;quot;Lato Extended&amp;quot;, Lato, &amp;quot;Helvetica Neue&amp;quot;, Helvetica, Arial, sans-serif; font-size: 16px; text-align: start; background-color: rgb(255, 255, 255);&quot;&gt;Horses&lt;/span&gt;" style="ellipse;whiteSpace=wrap;html=1;" vertex="1" parent="1">
          <mxGeometry x="165.5" y="555" width="61.5" height="30" as="geometry" />
        </mxCell>
        <mxCell id="oCExeXO8_PA0Ds2FLqin-89" value="" style="endArrow=none;html=1;rounded=0;entryX=1;entryY=1;entryDx=0;entryDy=0;exitX=0.611;exitY=0.018;exitDx=0;exitDy=0;exitPerimeter=0;" edge="1" parent="1" source="oCExeXO8_PA0Ds2FLqin-88" target="oCExeXO8_PA0Ds2FLqin-27">
          <mxGeometry width="50" height="50" relative="1" as="geometry">
            <mxPoint x="152" y="531" as="sourcePoint" />
            <mxPoint x="137" y="419" as="targetPoint" />
          </mxGeometry>
        </mxCell>
        <mxCell id="oCExeXO8_PA0Ds2FLqin-91" value="Barn" style="rounded=0;whiteSpace=wrap;html=1;" vertex="1" parent="1">
          <mxGeometry x="306" y="110" width="90" height="30" as="geometry" />
        </mxCell>
        <mxCell id="oCExeXO8_PA0Ds2FLqin-92" value="" style="endArrow=none;html=1;rounded=0;entryX=0.5;entryY=1;entryDx=0;entryDy=0;exitX=0.182;exitY=-0.033;exitDx=0;exitDy=0;exitPerimeter=0;" edge="1" parent="1" source="oCExeXO8_PA0Ds2FLqin-91" target="oCExeXO8_PA0Ds2FLqin-32">
          <mxGeometry width="50" height="50" relative="1" as="geometry">
            <mxPoint x="303.48" y="98.10000000000002" as="sourcePoint" />
            <mxPoint x="278" y="60" as="targetPoint" />
          </mxGeometry>
        </mxCell>
        <mxCell id="oCExeXO8_PA0Ds2FLqin-93" value="" style="endArrow=none;html=1;rounded=0;entryX=0.284;entryY=0.997;entryDx=0;entryDy=0;exitX=0.75;exitY=0;exitDx=0;exitDy=0;entryPerimeter=0;" edge="1" parent="1" source="oCExeXO8_PA0Ds2FLqin-91" target="oCExeXO8_PA0Ds2FLqin-33">
          <mxGeometry width="50" height="50" relative="1" as="geometry">
            <mxPoint x="381" y="100" as="sourcePoint" />
            <mxPoint x="331" y="90" as="targetPoint" />
          </mxGeometry>
        </mxCell>
        <mxCell id="oCExeXO8_PA0Ds2FLqin-94" value="" style="endArrow=none;html=1;rounded=0;entryX=0.75;entryY=0;entryDx=0;entryDy=0;exitX=0;exitY=1;exitDx=0;exitDy=0;" edge="1" parent="1" source="oCExeXO8_PA0Ds2FLqin-91" target="oCExeXO8_PA0Ds2FLqin-16">
          <mxGeometry width="50" height="50" relative="1" as="geometry">
            <mxPoint x="291" y="150" as="sourcePoint" />
            <mxPoint x="245" y="230" as="targetPoint" />
          </mxGeometry>
        </mxCell>
        <mxCell id="oCExeXO8_PA0Ds2FLqin-95" value="" style="ellipse;whiteSpace=wrap;html=1;" vertex="1" parent="1">
          <mxGeometry x="430" y="160" width="110" height="70" as="geometry" />
        </mxCell>
        <mxCell id="oCExeXO8_PA0Ds2FLqin-96" value="Amount" style="ellipse;whiteSpace=wrap;html=1;" vertex="1" parent="1">
          <mxGeometry x="441.5" y="170" width="87" height="50" as="geometry" />
        </mxCell>
        <mxCell id="oCExeXO8_PA0Ds2FLqin-97" value="Races" style="ellipse;whiteSpace=wrap;html=1;" vertex="1" parent="1">
          <mxGeometry x="324" y="210" width="87" height="50" as="geometry" />
        </mxCell>
        <mxCell id="oCExeXO8_PA0Ds2FLqin-98" value="Position" style="ellipse;whiteSpace=wrap;html=1;" vertex="1" parent="1">
          <mxGeometry x="460" y="230" width="87" height="50" as="geometry" />
        </mxCell>
        <mxCell id="oCExeXO8_PA0Ds2FLqin-99" value="Horse" style="ellipse;whiteSpace=wrap;html=1;" vertex="1" parent="1">
          <mxGeometry x="453" y="290" width="87" height="50" as="geometry" />
        </mxCell>
        <mxCell id="oCExeXO8_PA0Ds2FLqin-100" value="" style="endArrow=none;html=1;rounded=0;entryX=0.75;entryY=0;entryDx=0;entryDy=0;exitX=0;exitY=1;exitDx=0;exitDy=0;" edge="1" parent="1" source="oCExeXO8_PA0Ds2FLqin-34">
          <mxGeometry width="50" height="50" relative="1" as="geometry">
            <mxPoint x="330" y="150" as="sourcePoint" />
            <mxPoint x="282" y="230" as="targetPoint" />
          </mxGeometry>
        </mxCell>
        <mxCell id="oCExeXO8_PA0Ds2FLqin-105" value="" style="edgeStyle=orthogonalEdgeStyle;rounded=0;orthogonalLoop=1;jettySize=auto;html=1;entryX=0.913;entryY=1.076;entryDx=0;entryDy=0;entryPerimeter=0;" edge="1" parent="1" source="oCExeXO8_PA0Ds2FLqin-101" target="oCExeXO8_PA0Ds2FLqin-16">
          <mxGeometry relative="1" as="geometry">
            <Array as="points">
              <mxPoint x="335" y="290" />
              <mxPoint x="272" y="290" />
            </Array>
          </mxGeometry>
        </mxCell>
        <mxCell id="oCExeXO8_PA0Ds2FLqin-106" value="" style="edgeStyle=orthogonalEdgeStyle;rounded=0;orthogonalLoop=1;jettySize=auto;html=1;" edge="1" parent="1" source="oCExeXO8_PA0Ds2FLqin-101" target="oCExeXO8_PA0Ds2FLqin-102">
          <mxGeometry relative="1" as="geometry" />
        </mxCell>
        <mxCell id="oCExeXO8_PA0Ds2FLqin-101" value="Ride" style="rhombus;whiteSpace=wrap;html=1;rounded=0;" vertex="1" parent="1">
          <mxGeometry x="310" y="320" width="50" height="45" as="geometry" />
        </mxCell>
        <mxCell id="oCExeXO8_PA0Ds2FLqin-102" value="Jockey" style="rounded=0;whiteSpace=wrap;html=1;" vertex="1" parent="1">
          <mxGeometry x="321" y="390" width="90" height="30" as="geometry" />
        </mxCell>
        <mxCell id="oCExeXO8_PA0Ds2FLqin-107" value="&lt;span style=&quot;color: rgb(39, 53, 64); font-family: &amp;quot;Lato Extended&amp;quot;, Lato, &amp;quot;Helvetica Neue&amp;quot;, Helvetica, Arial, sans-serif; text-align: start; background-color: rgb(255, 255, 255);&quot;&gt;&lt;font style=&quot;font-size: 10px;&quot;&gt;Primary key&lt;/font&gt;&lt;/span&gt;" style="ellipse;whiteSpace=wrap;html=1;" vertex="1" parent="1">
          <mxGeometry x="336.75" y="440" width="61.5" height="30" as="geometry" />
        </mxCell>
        <mxCell id="oCExeXO8_PA0Ds2FLqin-108" value="&lt;span style=&quot;color: rgb(39, 53, 64); font-family: &amp;quot;Lato Extended&amp;quot;, Lato, &amp;quot;Helvetica Neue&amp;quot;, Helvetica, Arial, sans-serif; font-size: 16px; text-align: start; background-color: rgb(255, 255, 255);&quot;&gt;Phone&lt;/span&gt;" style="ellipse;whiteSpace=wrap;html=1;" vertex="1" parent="1">
          <mxGeometry x="370.5" y="470" width="61.5" height="30" as="geometry" />
        </mxCell>
        <mxCell id="oCExeXO8_PA0Ds2FLqin-109" value="&lt;span style=&quot;color: rgb(39, 53, 64); font-family: &amp;quot;Lato Extended&amp;quot;, Lato, &amp;quot;Helvetica Neue&amp;quot;, Helvetica, Arial, sans-serif; font-size: 16px; text-align: start; background-color: rgb(255, 255, 255);&quot;&gt;Name&lt;/span&gt;" style="ellipse;whiteSpace=wrap;html=1;" vertex="1" parent="1">
          <mxGeometry x="413.5" y="500" width="61.5" height="30" as="geometry" />
        </mxCell>
        <mxCell id="oCExeXO8_PA0Ds2FLqin-110" value="&lt;span style=&quot;color: rgb(39, 53, 64); font-family: &amp;quot;Lato Extended&amp;quot;, Lato, &amp;quot;Helvetica Neue&amp;quot;, Helvetica, Arial, sans-serif; font-size: 16px; text-align: start; background-color: rgb(255, 255, 255);&quot;&gt;Adress&lt;/span&gt;" style="ellipse;whiteSpace=wrap;html=1;" vertex="1" parent="1">
          <mxGeometry x="450" y="530" width="61.5" height="30" as="geometry" />
        </mxCell>
        <mxCell id="oCExeXO8_PA0Ds2FLqin-111" value="" style="endArrow=none;html=1;rounded=0;entryX=0.25;entryY=1;entryDx=0;entryDy=0;exitX=0;exitY=0;exitDx=0;exitDy=0;" edge="1" parent="1" source="oCExeXO8_PA0Ds2FLqin-107" target="oCExeXO8_PA0Ds2FLqin-102">
          <mxGeometry width="50" height="50" relative="1" as="geometry">
            <mxPoint x="260" y="501" as="sourcePoint" />
            <mxPoint x="280" y="450" as="targetPoint" />
          </mxGeometry>
        </mxCell>
        <mxCell id="oCExeXO8_PA0Ds2FLqin-112" value="" style="endArrow=none;html=1;rounded=0;entryX=0.75;entryY=1;entryDx=0;entryDy=0;exitX=0.642;exitY=0;exitDx=0;exitDy=0;exitPerimeter=0;" edge="1" parent="1" source="oCExeXO8_PA0Ds2FLqin-108" target="oCExeXO8_PA0Ds2FLqin-102">
          <mxGeometry width="50" height="50" relative="1" as="geometry">
            <mxPoint x="356" y="454" as="sourcePoint" />
            <mxPoint x="354" y="430" as="targetPoint" />
          </mxGeometry>
        </mxCell>
        <mxCell id="oCExeXO8_PA0Ds2FLqin-113" value="" style="endArrow=none;html=1;rounded=0;entryX=1;entryY=1;entryDx=0;entryDy=0;exitX=0.5;exitY=0;exitDx=0;exitDy=0;" edge="1" parent="1" source="oCExeXO8_PA0Ds2FLqin-109" target="oCExeXO8_PA0Ds2FLqin-102">
          <mxGeometry width="50" height="50" relative="1" as="geometry">
            <mxPoint x="420" y="480" as="sourcePoint" />
            <mxPoint x="399" y="430" as="targetPoint" />
          </mxGeometry>
        </mxCell>
        <mxCell id="oCExeXO8_PA0Ds2FLqin-114" value="" style="endArrow=none;html=1;rounded=0;entryX=1;entryY=0.5;entryDx=0;entryDy=0;exitX=0.644;exitY=-0.045;exitDx=0;exitDy=0;exitPerimeter=0;" edge="1" parent="1" source="oCExeXO8_PA0Ds2FLqin-110" target="oCExeXO8_PA0Ds2FLqin-102">
          <mxGeometry width="50" height="50" relative="1" as="geometry">
            <mxPoint x="420" y="461" as="sourcePoint" />
            <mxPoint x="440" y="410" as="targetPoint" />
          </mxGeometry>
        </mxCell>
        <mxCell id="oCExeXO8_PA0Ds2FLqin-115" value="Record and stats" style="ellipse;whiteSpace=wrap;html=1;" vertex="1" parent="1">
          <mxGeometry x="414" y="340" width="87" height="50" as="geometry" />
        </mxCell>
        <mxCell id="oCExeXO8_PA0Ds2FLqin-116" value="" style="endArrow=none;html=1;rounded=0;entryX=1;entryY=0.5;entryDx=0;entryDy=0;" edge="1" parent="1" target="oCExeXO8_PA0Ds2FLqin-16">
          <mxGeometry width="50" height="50" relative="1" as="geometry">
            <mxPoint x="320" y="235" as="sourcePoint" />
            <mxPoint x="320" y="337" as="targetPoint" />
          </mxGeometry>
        </mxCell>
        <mxCell id="oCExeXO8_PA0Ds2FLqin-117" value="" style="endArrow=none;html=1;rounded=0;entryX=1;entryY=0;entryDx=0;entryDy=0;" edge="1" parent="1" source="oCExeXO8_PA0Ds2FLqin-95" target="oCExeXO8_PA0Ds2FLqin-97">
          <mxGeometry width="50" height="50" relative="1" as="geometry">
            <mxPoint x="330" y="245" as="sourcePoint" />
            <mxPoint x="290" y="245" as="targetPoint" />
          </mxGeometry>
        </mxCell>
        <mxCell id="oCExeXO8_PA0Ds2FLqin-118" value="" style="endArrow=none;html=1;rounded=0;" edge="1" parent="1" source="oCExeXO8_PA0Ds2FLqin-98">
          <mxGeometry width="50" height="50" relative="1" as="geometry">
            <mxPoint x="444" y="218" as="sourcePoint" />
            <mxPoint x="410" y="230" as="targetPoint" />
          </mxGeometry>
        </mxCell>
        <mxCell id="oCExeXO8_PA0Ds2FLqin-119" value="" style="endArrow=none;html=1;rounded=0;entryX=1;entryY=0.5;entryDx=0;entryDy=0;exitX=0;exitY=0;exitDx=0;exitDy=0;" edge="1" parent="1" source="oCExeXO8_PA0Ds2FLqin-99" target="oCExeXO8_PA0Ds2FLqin-97">
          <mxGeometry width="50" height="50" relative="1" as="geometry">
            <mxPoint x="474" y="255" as="sourcePoint" />
            <mxPoint x="420" y="240" as="targetPoint" />
          </mxGeometry>
        </mxCell>
        <mxCell id="oCExeXO8_PA0Ds2FLqin-120" value="" style="endArrow=none;html=1;rounded=0;entryX=1;entryY=1;entryDx=0;entryDy=0;" edge="1" parent="1" source="oCExeXO8_PA0Ds2FLqin-115" target="oCExeXO8_PA0Ds2FLqin-97">
          <mxGeometry width="50" height="50" relative="1" as="geometry">
            <mxPoint x="476" y="307" as="sourcePoint" />
            <mxPoint x="421" y="245" as="targetPoint" />
          </mxGeometry>
        </mxCell>
      </root>
    </mxGraphModel>
  </diagram>
</mxfile>
